<svg width="0" height="0" class="hidden">
  <symbol xmlns="http://www.w3.org/2000/svg" xmlns:xlink="http://www.w3.org/1999/xlink" zoomAndPan="magnify" preserveAspectRatio="xMidYMid meet" version="1.0" viewBox="50 50 200 200" id="1">
    <defs>
      <clipPath id="a007952604">
        <path d="M 118.113281 112.003906 L 212.617188 112.003906 L 212.617188 206.503906 L 118.113281 206.503906 Z M 118.113281 112.003906 " clip-rule="nonzero"></path>
      </clipPath>
    </defs>
    <g clip-path="url(#a007952604)">
      <path fill="#ff5757" d="M 211.167969 206.503906 C 210.890625 206.503906 210.636719 206.429688 210.402344 206.28125 L 165.363281 178.1875 L 120.332031 206.28125 C 120.046875 206.460938 119.734375 206.53125 119.402344 206.492188 C 119.066406 206.453125 118.78125 206.316406 118.542969 206.078125 C 118.304688 205.839844 118.167969 205.554688 118.128906 205.21875 C 118.089844 204.886719 118.15625 204.574219 118.335938 204.289062 L 146.429688 159.253906 L 118.335938 114.21875 C 118.15625 113.933594 118.085938 113.621094 118.125 113.289062 C 118.164062 112.953125 118.300781 112.664062 118.539062 112.425781 C 118.777344 112.1875 119.066406 112.050781 119.398438 112.011719 C 119.734375 111.972656 120.046875 112.042969 120.332031 112.222656 L 165.363281 140.316406 L 210.402344 112.222656 C 210.636719 112.078125 210.890625 112.003906 211.167969 112.003906 C 211.429688 112.003906 211.675781 112.070312 211.902344 112.203125 C 212.128906 112.335938 212.304688 112.519531 212.433594 112.75 C 212.5625 112.980469 212.621094 113.226562 212.613281 113.488281 C 212.609375 113.753906 212.535156 113.996094 212.394531 114.21875 L 184.300781 159.253906 L 212.394531 204.289062 C 212.535156 204.511719 212.605469 204.757812 212.613281 205.019531 C 212.621094 205.28125 212.558594 205.527344 212.429688 205.757812 C 212.304688 205.988281 212.128906 206.167969 211.902344 206.300781 C 211.675781 206.4375 211.429688 206.503906 211.167969 206.503906 Z M 159.214844 155.699219 C 159.164062 155.785156 159.113281 155.867188 159.066406 155.953125 C 159.019531 156.042969 158.980469 156.128906 158.941406 156.214844 L 158.875 156.359375 C 158.84375 156.425781 158.8125 156.492188 158.78125 156.5625 C 158.753906 156.632812 158.71875 156.734375 158.6875 156.828125 L 158.609375 157.042969 C 158.589844 157.09375 158.574219 157.140625 158.558594 157.195312 C 158.527344 157.292969 158.503906 157.394531 158.480469 157.484375 L 158.390625 157.847656 C 158.363281 157.976562 158.347656 158.113281 158.332031 158.246094 L 158.285156 158.5625 C 158.261719 158.773438 158.253906 159.011719 158.253906 159.242188 C 158.253906 159.707031 158.296875 160.171875 158.390625 160.628906 C 158.480469 161.085938 158.617188 161.53125 158.796875 161.960938 C 158.972656 162.394531 159.191406 162.804688 159.453125 163.191406 C 159.710938 163.582031 160.007812 163.9375 160.335938 164.269531 C 160.667969 164.601562 161.027344 164.894531 161.414062 165.152344 C 161.804688 165.414062 162.210938 165.632812 162.644531 165.8125 C 163.074219 165.992188 163.519531 166.125 163.976562 166.21875 C 164.4375 166.308594 164.898438 166.355469 165.363281 166.355469 C 165.59375 166.355469 165.832031 166.34375 166.078125 166.320312 L 166.3125 166.28125 C 166.496094 166.257812 166.632812 166.242188 166.765625 166.214844 L 167.125 166.125 C 167.226562 166.101562 167.328125 166.078125 167.414062 166.050781 L 167.5625 166 L 167.773438 165.921875 C 167.863281 165.890625 167.957031 165.863281 168.042969 165.824219 L 168.246094 165.734375 L 168.34375 165.6875 C 168.476562 165.628906 168.566406 165.585938 168.648438 165.539062 C 168.734375 165.496094 168.824219 165.445312 168.910156 165.394531 L 169.226562 165.203125 C 169.316406 165.144531 169.410156 165.078125 169.515625 165.007812 C 169.621094 164.9375 169.6875 164.882812 169.769531 164.820312 C 169.847656 164.757812 169.957031 164.667969 170.058594 164.585938 C 170.160156 164.503906 170.203125 164.453125 170.273438 164.390625 C 170.34375 164.328125 170.453125 164.214844 170.539062 164.121094 C 170.628906 164.027344 170.667969 163.984375 170.726562 163.917969 C 170.785156 163.847656 170.898438 163.71875 170.976562 163.625 C 171.058594 163.535156 171.085938 163.484375 171.132812 163.414062 C 171.183594 163.34375 171.292969 163.195312 171.367188 163.078125 C 171.410156 163.011719 171.445312 162.953125 171.480469 162.890625 C 171.558594 162.75 171.636719 162.625 171.703125 162.492188 L 171.792969 162.304688 C 171.859375 162.167969 171.925781 162.015625 171.980469 161.886719 L 172.042969 161.71875 C 172.097656 161.558594 172.15625 161.402344 172.203125 161.242188 L 172.238281 161.101562 C 172.277344 160.945312 172.320312 160.785156 172.355469 160.621094 C 172.355469 160.570312 172.367188 160.523438 172.378906 160.476562 C 172.410156 160.289062 172.4375 160.09375 172.457031 159.894531 C 172.480469 159.636719 172.488281 159.433594 172.488281 159.253906 C 172.488281 158.785156 172.445312 158.324219 172.351562 157.867188 C 172.261719 157.40625 172.125 156.964844 171.945312 156.53125 C 171.765625 156.101562 171.546875 155.691406 171.289062 155.304688 C 171.027344 154.914062 170.734375 154.554688 170.402344 154.226562 C 170.074219 153.894531 169.714844 153.601562 169.328125 153.339844 C 168.9375 153.082031 168.527344 152.863281 168.097656 152.683594 C 167.667969 152.503906 167.222656 152.371094 166.765625 152.277344 C 166.304688 152.1875 165.84375 152.140625 165.375 152.140625 C 165.195312 152.140625 164.992188 152.140625 164.734375 152.175781 C 164.535156 152.191406 164.34375 152.222656 164.15625 152.253906 L 164.019531 152.277344 C 163.855469 152.308594 163.695312 152.351562 163.539062 152.390625 L 163.390625 152.429688 C 163.230469 152.476562 163.078125 152.53125 162.921875 152.589844 L 162.742188 152.652344 C 162.609375 152.707031 162.46875 152.769531 162.328125 152.835938 L 162.148438 152.925781 C 162.011719 152.996094 161.882812 153.070312 161.757812 153.144531 L 161.5625 153.261719 C 161.441406 153.339844 161.328125 153.417969 161.214844 153.5 L 161.015625 153.648438 C 160.90625 153.734375 160.804688 153.816406 160.707031 153.90625 L 160.507812 154.082031 C 160.414062 154.175781 160.324219 154.265625 160.234375 154.371094 C 160.144531 154.480469 160.101562 154.515625 160.039062 154.585938 C 159.976562 154.660156 159.878906 154.769531 159.800781 154.875 L 159.621094 155.117188 C 159.550781 155.21875 159.484375 155.3125 159.417969 155.40625 C 159.355469 155.503906 159.3125 155.578125 159.261719 155.667969 Z M 159.214844 155.699219 " fill-opacity="1" fill-rule="nonzero"></path>
    </g>
    <path fill="#ff5757" d="M 211.167969 113.449219 L 165.363281 142.027344 L 119.5625 113.449219 L 148.136719 159.253906 L 119.5625 205.054688 L 165.363281 176.484375 L 211.167969 205.054688 L 182.59375 159.253906 Z M 165.363281 164.359375 C 165.03125 164.359375 164.699219 164.328125 164.367188 164.261719 C 164.039062 164.195312 163.722656 164.097656 163.410156 163.96875 C 163.101562 163.84375 162.808594 163.683594 162.527344 163.5 C 162.25 163.3125 161.992188 163.101562 161.753906 162.863281 C 161.515625 162.625 161.304688 162.367188 161.121094 162.089844 C 160.933594 161.8125 160.777344 161.515625 160.648438 161.207031 C 160.519531 160.898438 160.421875 160.578125 160.355469 160.25 C 160.292969 159.921875 160.257812 159.589844 160.257812 159.253906 C 160.257812 158.917969 160.292969 158.585938 160.355469 158.257812 C 160.421875 157.929688 160.519531 157.609375 160.648438 157.300781 C 160.777344 156.988281 160.933594 156.695312 161.121094 156.417969 C 161.304688 156.136719 161.515625 155.878906 161.753906 155.640625 C 161.992188 155.40625 162.25 155.195312 162.527344 155.007812 C 162.808594 154.820312 163.101562 154.664062 163.410156 154.535156 C 163.722656 154.40625 164.039062 154.308594 164.367188 154.246094 C 164.699219 154.179688 165.03125 154.148438 165.363281 154.148438 C 165.699219 154.148438 166.03125 154.179688 166.363281 154.246094 C 166.691406 154.308594 167.007812 154.40625 167.320312 154.535156 C 167.628906 154.664062 167.921875 154.820312 168.203125 155.007812 C 168.480469 155.195312 168.738281 155.40625 168.976562 155.640625 C 169.214844 155.878906 169.425781 156.136719 169.609375 156.417969 C 169.796875 156.695312 169.953125 156.988281 170.082031 157.300781 C 170.210938 157.609375 170.308594 157.929688 170.375 158.257812 C 170.4375 158.585938 170.472656 158.917969 170.472656 159.253906 C 170.472656 159.589844 170.4375 159.921875 170.375 160.25 C 170.308594 160.578125 170.210938 160.898438 170.082031 161.207031 C 169.953125 161.515625 169.796875 161.8125 169.609375 162.089844 C 169.425781 162.367188 169.214844 162.625 168.976562 162.863281 C 168.738281 163.101562 168.480469 163.3125 168.203125 163.5 C 167.921875 163.683594 167.628906 163.84375 167.320312 163.96875 C 167.007812 164.097656 166.691406 164.195312 166.363281 164.261719 C 166.03125 164.328125 165.699219 164.359375 165.363281 164.359375 Z M 165.363281 164.359375 " fill-opacity="1" fill-rule="nonzero"></path>
    <path fill="#353532" d="M 127.1875 121.078125 L 119.5625 113.449219 L 148.136719 159.253906 L 151.003906 159.253906 Z M 127.1875 121.078125 " fill-opacity="1" fill-rule="nonzero"></path>
    <path fill="#353532" d="M 165.363281 142.027344 L 165.363281 144.894531 L 203.542969 121.078125 L 211.167969 113.449219 Z M 165.363281 142.027344 " fill-opacity="1" fill-rule="nonzero"></path>
    <path fill="#353532" d="M 151.003906 159.253906 L 127.1875 197.429688 L 119.5625 205.054688 L 148.136719 159.253906 Z M 151.003906 159.253906 " fill-opacity="1" fill-rule="nonzero"></path>
    <path fill="#f3e4ca" d="M 127.1875 121.078125 L 165.363281 144.894531 L 165.363281 142.027344 L 119.5625 113.449219 Z M 127.1875 121.078125 " fill-opacity="1" fill-rule="nonzero"></path>
    <path fill="#f3e4ca" d="M 182.59375 159.253906 L 179.726562 159.253906 L 203.542969 121.078125 L 211.167969 113.449219 Z M 182.59375 159.253906 " fill-opacity="1" fill-rule="nonzero"></path>
    <path fill="#ff5757" d="M 203.554688 121.078125 L 165.363281 144.894531 L 127.1875 121.078125 L 151.003906 159.253906 L 127.1875 197.445312 L 165.363281 173.628906 L 203.554688 197.445312 L 179.726562 159.253906 Z M 165.363281 164.359375 C 165.03125 164.359375 164.699219 164.328125 164.367188 164.261719 C 164.039062 164.195312 163.722656 164.097656 163.410156 163.96875 C 163.101562 163.84375 162.808594 163.683594 162.527344 163.5 C 162.25 163.3125 161.992188 163.101562 161.753906 162.863281 C 161.515625 162.625 161.304688 162.367188 161.121094 162.089844 C 160.933594 161.8125 160.777344 161.515625 160.648438 161.207031 C 160.519531 160.898438 160.421875 160.578125 160.355469 160.25 C 160.292969 159.921875 160.257812 159.589844 160.257812 159.253906 C 160.257812 158.917969 160.292969 158.585938 160.355469 158.257812 C 160.421875 157.929688 160.519531 157.609375 160.648438 157.300781 C 160.777344 156.988281 160.933594 156.695312 161.121094 156.417969 C 161.304688 156.136719 161.515625 155.878906 161.753906 155.640625 C 161.992188 155.40625 162.25 155.195312 162.527344 155.007812 C 162.808594 154.820312 163.101562 154.664062 163.410156 154.535156 C 163.722656 154.40625 164.039062 154.308594 164.367188 154.246094 C 164.699219 154.179688 165.03125 154.148438 165.363281 154.148438 C 165.699219 154.148438 166.03125 154.179688 166.363281 154.246094 C 166.691406 154.308594 167.007812 154.40625 167.320312 154.535156 C 167.628906 154.664062 167.921875 154.820312 168.203125 155.007812 C 168.480469 155.195312 168.738281 155.40625 168.976562 155.640625 C 169.214844 155.878906 169.425781 156.136719 169.609375 156.417969 C 169.796875 156.695312 169.953125 156.988281 170.082031 157.300781 C 170.210938 157.609375 170.308594 157.929688 170.375 158.257812 C 170.4375 158.585938 170.472656 158.917969 170.472656 159.253906 C 170.472656 159.589844 170.4375 159.921875 170.375 160.25 C 170.308594 160.578125 170.210938 160.898438 170.082031 161.207031 C 169.953125 161.515625 169.796875 161.8125 169.609375 162.089844 C 169.425781 162.367188 169.214844 162.625 168.976562 162.863281 C 168.738281 163.101562 168.480469 163.3125 168.203125 163.5 C 167.921875 163.683594 167.628906 163.84375 167.320312 163.96875 C 167.007812 164.097656 166.691406 164.195312 166.363281 164.261719 C 166.03125 164.328125 165.699219 164.359375 165.363281 164.359375 Z M 165.363281 164.359375 " fill-opacity="1" fill-rule="nonzero"></path>
    <path fill="#353532" d="M 165.363281 164.359375 C 165.039062 164.359375 164.71875 164.328125 164.398438 164.269531 C 164.078125 164.207031 163.765625 164.113281 163.464844 163.996094 C 163.160156 163.875 162.875 163.726562 162.597656 163.546875 C 162.324219 163.371094 162.070312 163.171875 161.835938 162.945312 C 161.601562 162.722656 161.386719 162.476562 161.199219 162.210938 C 161.011719 161.945312 160.847656 161.664062 160.714844 161.367188 C 160.578125 161.074219 160.472656 160.765625 160.398438 160.449219 C 160.320312 160.132812 160.277344 159.8125 160.261719 159.488281 C 160.246094 159.160156 160.261719 158.835938 160.308594 158.515625 C 160.355469 158.191406 160.433594 157.878906 160.542969 157.570312 C 160.648438 157.261719 160.785156 156.96875 160.949219 156.6875 C 161.113281 156.40625 161.300781 156.144531 161.515625 155.898438 C 161.730469 155.652344 161.964844 155.429688 162.222656 155.230469 C 162.480469 155.03125 162.753906 154.855469 163.042969 154.707031 C 163.335938 154.558594 163.636719 154.441406 163.949219 154.351562 C 164.261719 154.261719 164.582031 154.203125 164.90625 154.171875 C 164.753906 154.171875 164.601562 154.148438 164.445312 154.148438 C 164.050781 154.148438 163.660156 154.183594 163.269531 154.261719 C 162.882812 154.339844 162.507812 154.453125 162.140625 154.605469 C 161.773438 154.757812 161.425781 154.941406 161.097656 155.160156 C 160.769531 155.382812 160.464844 155.628906 160.183594 155.910156 C 159.902344 156.191406 159.652344 156.496094 159.433594 156.824219 C 159.214844 157.152344 159.027344 157.5 158.875 157.867188 C 158.726562 158.230469 158.609375 158.609375 158.535156 158.996094 C 158.457031 159.382812 158.417969 159.777344 158.417969 160.171875 C 158.417969 160.566406 158.457031 160.960938 158.53125 161.347656 C 158.609375 161.734375 158.722656 162.113281 158.875 162.480469 C 159.027344 162.84375 159.210938 163.191406 159.433594 163.519531 C 159.652344 163.851562 159.902344 164.15625 160.179688 164.433594 C 160.460938 164.714844 160.765625 164.964844 161.09375 165.183594 C 161.421875 165.40625 161.769531 165.589844 162.136719 165.742188 C 162.503906 165.894531 162.878906 166.007812 163.265625 166.085938 C 163.65625 166.164062 164.046875 166.199219 164.441406 166.203125 C 164.839844 166.203125 165.230469 166.164062 165.621094 166.085938 C 166.007812 166.007812 166.382812 165.894531 166.75 165.742188 C 167.117188 165.589844 167.464844 165.40625 167.792969 165.1875 C 168.121094 164.964844 168.425781 164.714844 168.707031 164.4375 C 168.984375 164.15625 169.234375 163.851562 169.457031 163.523438 C 169.675781 163.195312 169.859375 162.847656 170.011719 162.480469 C 170.164062 162.113281 170.277344 161.738281 170.355469 161.351562 C 170.433594 160.960938 170.472656 160.570312 170.472656 160.175781 C 170.472656 160.019531 170.472656 159.863281 170.449219 159.714844 C 170.390625 160.347656 170.21875 160.949219 169.9375 161.519531 C 169.65625 162.09375 169.277344 162.59375 168.808594 163.023438 C 168.335938 163.453125 167.804688 163.78125 167.210938 164.011719 C 166.617188 164.242188 166.003906 164.359375 165.363281 164.359375 Z M 165.363281 164.359375 " fill-opacity="1" fill-rule="nonzero"></path>
    <path fill="#353532" d="M 165.363281 176.484375 L 165.363281 173.613281 L 203.542969 197.429688 L 211.167969 205.054688 Z M 165.363281 176.484375 " fill-opacity="1" fill-rule="nonzero"></path>
    <path fill="#f3e4ca" d="M 165.363281 173.613281 L 165.363281 176.484375 L 119.5625 205.054688 L 127.1875 197.429688 Z M 165.363281 173.613281 " fill-opacity="1" fill-rule="nonzero"></path>
    <path fill="#f3e4ca" d="M 179.726562 159.253906 L 203.542969 197.429688 L 211.167969 205.054688 L 182.59375 159.253906 Z M 179.726562 159.253906 " fill-opacity="1" fill-rule="nonzero"></path>
  </symbol>
  <symbol xmlns="http://www.w3.org/2000/svg" xmlns:xlink="http://www.w3.org/1999/xlink" zoomAndPan="magnify" preserveAspectRatio="xMidYMid meet" version="1.0" viewBox="0 0 375 374.999991" id="2">
    <defs>
      <g></g>
    </defs>
    <g fill="#0071a8" fill-opacity="1">
      <g transform="translate(96.32917, 205.912604)">
        <g>
          <path d="M 1.53125 -21 L 8.046875 -21 C 10.015625 -21 11.582031 -20.578125 12.75 -19.734375 C 13.925781 -18.898438 14.515625 -17.539062 14.515625 -15.65625 C 14.515625 -13.550781 13.640625 -12.050781 11.890625 -11.15625 C 14.867188 -10.625 16.359375 -8.859375 16.359375 -5.859375 C 16.359375 -4.085938 15.75 -2.664062 14.53125 -1.59375 C 13.3125 -0.53125 11.632812 0 9.5 0 L 1.53125 0 Z M 6.3125 -12.78125 L 6.6875 -12.78125 C 7.757812 -12.78125 8.554688 -12.960938 9.078125 -13.328125 C 9.609375 -13.703125 9.875 -14.316406 9.875 -15.171875 C 9.875 -16.597656 8.8125 -17.3125 6.6875 -17.3125 L 6.3125 -17.3125 Z M 6.3125 -3.6875 L 7.8125 -3.6875 C 10.15625 -3.6875 11.328125 -4.46875 11.328125 -6.03125 C 11.328125 -6.96875 11.035156 -7.640625 10.453125 -8.046875 C 9.867188 -8.453125 8.988281 -8.65625 7.8125 -8.65625 L 6.3125 -8.65625 Z M 6.3125 -3.6875 "></path>
        </g>
      </g>
    </g>
    <g fill="#0071a8" fill-opacity="1">
      <g transform="translate(113.273189, 205.912604)">
        <g>
          <path d="M 6.3125 -21 L 6.3125 -4.203125 L 13.546875 -4.203125 L 13.546875 0 L 1.53125 0 L 1.53125 -21 Z M 6.3125 -21 "></path>
        </g>
      </g>
    </g>
    <g fill="#0071a8" fill-opacity="1">
      <g transform="translate(127.647619, 205.912604)">
        <g>
          <path d="M 17.671875 -21 L 17.671875 -7.453125 C 17.671875 -4.878906 16.972656 -2.929688 15.578125 -1.609375 C 14.179688 -0.285156 12.144531 0.375 9.46875 0.375 C 6.789062 0.375 4.753906 -0.285156 3.359375 -1.609375 C 1.960938 -2.929688 1.265625 -4.878906 1.265625 -7.453125 L 1.265625 -21 L 6.0625 -21 L 6.0625 -8.859375 C 6.0625 -7.160156 6.328125 -5.976562 6.859375 -5.3125 C 7.390625 -4.65625 8.257812 -4.328125 9.46875 -4.328125 C 10.675781 -4.328125 11.546875 -4.65625 12.078125 -5.3125 C 12.609375 -5.976562 12.875 -7.160156 12.875 -8.859375 L 12.875 -21 Z M 17.671875 -21 "></path>
        </g>
      </g>
    </g>
    <g fill="#0071a8" fill-opacity="1">
      <g transform="translate(146.576066, 205.912604)">
        <g>
          <path d="M 6.3125 -13.03125 L 6.3125 0 L 1.53125 0 L 1.53125 -21 L 6.3125 -21 L 14.65625 -7.96875 L 14.71875 -7.96875 L 14.71875 -21 L 19.5 -21 L 19.5 0 L 14.71875 0 L 6.359375 -13.03125 Z M 6.3125 -13.03125 "></path>
        </g>
      </g>
    </g>
    <g fill="#0071a8" fill-opacity="1">
      <g transform="translate(167.590712, 205.912604)">
        <g>
          <path d="M 6.3125 -21 L 6.3125 0 L 1.53125 0 L 1.53125 -21 Z M 6.3125 -21 "></path>
        </g>
      </g>
    </g>
    <g fill="#0071a8" fill-opacity="1">
      <g transform="translate(175.426688, 205.912604)">
        <g>
          <path d="M 6.3125 -13.03125 L 6.3125 0 L 1.53125 0 L 1.53125 -21 L 6.3125 -21 L 14.65625 -7.96875 L 14.71875 -7.96875 L 14.71875 -21 L 19.5 -21 L 19.5 0 L 14.71875 0 L 6.359375 -13.03125 Z M 6.3125 -13.03125 "></path>
        </g>
      </g>
    </g>
    <g fill="#0071a8" fill-opacity="1">
      <g transform="translate(196.441334, 205.912604)">
        <g>
          <path d="M 10.671875 -21 L 10.671875 -5.9375 C 10.671875 -3.875 10.101562 -2.304688 8.96875 -1.234375 C 7.84375 -0.160156 6.226562 0.375 4.125 0.375 C 3.5625 0.375 3.007812 0.304688 2.46875 0.171875 C 1.925781 0.0351562 1.46875 -0.125 1.09375 -0.3125 C 0.71875 -0.507812 0.378906 -0.707031 0.078125 -0.90625 C -0.210938 -1.113281 -0.425781 -1.285156 -0.5625 -1.421875 L -0.78125 -1.625 L 0.734375 -5.625 C 1.734375 -4.675781 2.644531 -4.203125 3.46875 -4.203125 C 4.195312 -4.203125 4.78125 -4.441406 5.21875 -4.921875 C 5.65625 -5.410156 5.875 -6.15625 5.875 -7.15625 L 5.875 -21 Z M 10.671875 -21 "></path>
        </g>
      </g>
    </g>
    <g fill="#0071a8" fill-opacity="1">
      <g transform="translate(208.373379, 205.912604)">
        <g>
          <path d="M 12.1875 -21 L 20.671875 0 L 15.53125 0 L 13.96875 -4.203125 L 5.984375 -4.203125 L 4.421875 0 L -0.71875 0 L 7.765625 -21 Z M 12.34375 -8.40625 L 10 -14.515625 L 9.953125 -14.515625 L 7.609375 -8.40625 Z M 12.34375 -8.40625 "></path>
        </g>
      </g>
    </g>
    <g fill="#0071a8" fill-opacity="1">
      <g transform="translate(228.319491, 205.912604)">
        <g>
          <path d="M 4.421875 -5.453125 C 5.242188 -5.453125 5.9375 -5.164062 6.5 -4.59375 C 7.070312 -4.019531 7.359375 -3.328125 7.359375 -2.515625 C 7.359375 -1.722656 7.070312 -1.039062 6.5 -0.46875 C 5.9375 0.09375 5.242188 0.375 4.421875 0.375 C 3.628906 0.375 2.945312 0.09375 2.375 -0.46875 C 1.8125 -1.039062 1.53125 -1.722656 1.53125 -2.515625 C 1.53125 -3.328125 1.8125 -4.019531 2.375 -4.59375 C 2.945312 -5.164062 3.628906 -5.453125 4.421875 -5.453125 Z M 4.421875 -5.453125 "></path>
        </g>
      </g>
    </g>
    <g fill="#0071a8" fill-opacity="1">
      <g transform="translate(237.198561, 205.912604)">
        <g>
          <path d="M 12.703125 -4.328125 C 13.429688 -4.328125 14.140625 -4.4375 14.828125 -4.65625 C 15.515625 -4.875 16.019531 -5.085938 16.34375 -5.296875 L 16.828125 -5.625 L 18.859375 -1.546875 C 18.796875 -1.492188 18.703125 -1.425781 18.578125 -1.34375 C 18.460938 -1.257812 18.1875 -1.101562 17.75 -0.875 C 17.320312 -0.644531 16.859375 -0.445312 16.359375 -0.28125 C 15.867188 -0.113281 15.222656 0.0351562 14.421875 0.171875 C 13.628906 0.304688 12.8125 0.375 11.96875 0.375 C 10.007812 0.375 8.15625 -0.101562 6.40625 -1.0625 C 4.664062 -2.019531 3.257812 -3.335938 2.1875 -5.015625 C 1.113281 -6.691406 0.578125 -8.507812 0.578125 -10.46875 C 0.578125 -11.9375 0.890625 -13.347656 1.515625 -14.703125 C 2.148438 -16.066406 2.988281 -17.234375 4.03125 -18.203125 C 5.070312 -19.171875 6.289062 -19.941406 7.6875 -20.515625 C 9.082031 -21.085938 10.507812 -21.375 11.96875 -21.375 C 13.320312 -21.375 14.570312 -21.210938 15.71875 -20.890625 C 16.863281 -20.566406 17.671875 -20.25 18.140625 -19.9375 L 18.859375 -19.453125 L 16.828125 -15.375 C 16.703125 -15.476562 16.519531 -15.597656 16.28125 -15.734375 C 16.050781 -15.878906 15.578125 -16.070312 14.859375 -16.3125 C 14.148438 -16.550781 13.429688 -16.671875 12.703125 -16.671875 C 11.546875 -16.671875 10.507812 -16.484375 9.59375 -16.109375 C 8.675781 -15.734375 7.953125 -15.238281 7.421875 -14.625 C 6.890625 -14.019531 6.484375 -13.363281 6.203125 -12.65625 C 5.921875 -11.957031 5.78125 -11.242188 5.78125 -10.515625 C 5.78125 -8.921875 6.375 -7.488281 7.5625 -6.21875 C 8.757812 -4.957031 10.472656 -4.328125 12.703125 -4.328125 Z M 12.703125 -4.328125 "></path>
        </g>
      </g>
    </g>
    <g fill="#0071a8" fill-opacity="1">
      <g transform="translate(256.35598, 205.912604)">
        <g>
          <path d="M 0.578125 -10.515625 C 0.578125 -13.546875 1.613281 -16.113281 3.6875 -18.21875 C 5.757812 -20.320312 8.253906 -21.375 11.171875 -21.375 C 14.109375 -21.375 16.601562 -20.328125 18.65625 -18.234375 C 20.707031 -16.140625 21.734375 -13.566406 21.734375 -10.515625 C 21.734375 -7.441406 20.722656 -4.859375 18.703125 -2.765625 C 16.679688 -0.671875 14.171875 0.375 11.171875 0.375 C 8.097656 0.375 5.5625 -0.660156 3.5625 -2.734375 C 1.570312 -4.816406 0.578125 -7.410156 0.578125 -10.515625 Z M 5.75 -10.515625 C 5.75 -9.410156 5.914062 -8.40625 6.25 -7.5 C 6.59375 -6.59375 7.1875 -5.820312 8.03125 -5.1875 C 8.882812 -4.5625 9.929688 -4.25 11.171875 -4.25 C 12.953125 -4.25 14.296875 -4.859375 15.203125 -6.078125 C 16.109375 -7.304688 16.5625 -8.785156 16.5625 -10.515625 C 16.5625 -12.222656 16.097656 -13.691406 15.171875 -14.921875 C 14.253906 -16.160156 12.921875 -16.78125 11.171875 -16.78125 C 9.441406 -16.78125 8.101562 -16.160156 7.15625 -14.921875 C 6.21875 -13.691406 5.75 -12.222656 5.75 -10.515625 Z M 5.75 -10.515625 "></path>
        </g>
      </g>
    </g>
  </symbol>
  <symbol xmlns="http://www.w3.org/2000/svg" xmlns:xlink="http://www.w3.org/1999/xlink" zoomAndPan="magnify" preserveAspectRatio="xMidYMid meet" version="1.0" viewBox="90 50 100 100" id="3">
    <defs>
      <g></g>
    </defs>
    <g fill="#ff5757" fill-opacity="1">
      <g transform="translate(149.687677, 89.393197)">
        <g>
          <path d="M 3.484375 0 C 3.515625 -0.144531 3.476562 -0.226562 3.375 -0.25 C 3.34375 -0.25 3.3125 -0.25 3.28125 -0.25 L 2.609375 -0.25 L 3.859375 -5.65625 L 4.421875 -5.65625 C 4.953125 -5.65625 5.238281 -5.332031 5.28125 -4.6875 C 5.269531 -4.664062 5.265625 -4.648438 5.265625 -4.640625 L 5.28125 -3.96875 L 5.546875 -3.96875 L 5.9375 -5.921875 L 1.078125 -5.921875 L 0.578125 -3.96875 L 0.859375 -3.96875 L 1.15625 -4.640625 C 1.519531 -5.273438 1.957031 -5.613281 2.46875 -5.65625 L 3 -5.65625 L 1.765625 -0.25 L 0.828125 -0.25 L 0.765625 0 Z M 3.484375 0 "></path>
        </g>
      </g>
    </g>
    <g fill="#ff5757" fill-opacity="1">
      <g transform="translate(157.58483, 89.393197)">
        <g>
          <path d="M 2.90625 -4.046875 C 3.363281 -4.046875 3.625 -3.847656 3.6875 -3.453125 C 3.707031 -3.328125 3.703125 -3.195312 3.671875 -3.0625 C 3.597656 -2.726562 3.394531 -2.523438 3.0625 -2.453125 C 2.882812 -2.421875 2.648438 -2.410156 2.359375 -2.421875 L 1.3125 -2.4375 C 1.519531 -3.195312 1.878906 -3.691406 2.390625 -3.921875 C 2.566406 -4.003906 2.738281 -4.046875 2.90625 -4.046875 Z M 3.90625 -0.953125 L 3.671875 -1.03125 C 3.335938 -0.53125 2.898438 -0.25 2.359375 -0.1875 C 2.296875 -0.175781 2.234375 -0.171875 2.171875 -0.171875 C 1.484375 -0.171875 1.144531 -0.582031 1.15625 -1.40625 C 1.15625 -1.632812 1.1875 -1.890625 1.25 -2.171875 L 2.421875 -2.15625 C 3.222656 -2.132812 3.757812 -2.207031 4.03125 -2.375 C 4.238281 -2.507812 4.367188 -2.695312 4.421875 -2.9375 C 4.523438 -3.382812 4.378906 -3.738281 3.984375 -4 C 3.703125 -4.1875 3.351562 -4.28125 2.9375 -4.28125 C 2.113281 -4.28125 1.445312 -3.941406 0.9375 -3.265625 C 0.675781 -2.910156 0.492188 -2.507812 0.390625 -2.0625 C 0.203125 -1.25 0.351562 -0.644531 0.84375 -0.25 C 1.144531 -0.0195312 1.519531 0.09375 1.96875 0.09375 C 2.675781 0.09375 3.253906 -0.160156 3.703125 -0.671875 C 3.773438 -0.765625 3.84375 -0.859375 3.90625 -0.953125 Z M 3.90625 -0.953125 "></path>
        </g>
      </g>
    </g>
    <g fill="#ff5757" fill-opacity="1">
      <g transform="translate(164.398113, 89.393197)">
        <g>
          <path d="M 0.390625 -2.046875 C 0.203125 -1.253906 0.351562 -0.660156 0.84375 -0.265625 C 1.15625 -0.0234375 1.539062 0.09375 2 0.09375 C 2.6875 0.09375 3.253906 -0.144531 3.703125 -0.625 C 3.804688 -0.726562 3.894531 -0.835938 3.96875 -0.953125 L 3.734375 -1.046875 C 3.367188 -0.523438 2.90625 -0.238281 2.34375 -0.1875 C 2.28125 -0.175781 2.222656 -0.171875 2.171875 -0.171875 C 1.710938 -0.171875 1.398438 -0.40625 1.234375 -0.875 C 1.128906 -1.226562 1.128906 -1.648438 1.234375 -2.140625 C 1.429688 -3.003906 1.789062 -3.578125 2.3125 -3.859375 C 2.539062 -3.984375 2.769531 -4.046875 3 -4.046875 C 3.351562 -4.046875 3.53125 -3.90625 3.53125 -3.625 C 3.53125 -3.570312 3.53125 -3.488281 3.53125 -3.375 C 3.507812 -3.113281 3.546875 -2.953125 3.640625 -2.890625 C 3.691406 -2.859375 3.753906 -2.835938 3.828125 -2.828125 C 4.054688 -2.816406 4.222656 -2.910156 4.328125 -3.109375 C 4.347656 -3.148438 4.363281 -3.191406 4.375 -3.234375 C 4.445312 -3.566406 4.296875 -3.84375 3.921875 -4.0625 C 3.648438 -4.207031 3.335938 -4.28125 2.984375 -4.28125 C 2.109375 -4.28125 1.410156 -3.925781 0.890625 -3.21875 C 0.648438 -2.875 0.484375 -2.484375 0.390625 -2.046875 Z M 0.390625 -2.046875 "></path>
        </g>
      </g>
    </g>
    <g fill="#ff5757" fill-opacity="1">
      <g transform="translate(170.925649, 89.393197)">
        <g>
          <path d="M 1.625 -0.25 L 1.125 -0.25 L 1.625 -2.375 C 1.757812 -2.96875 2.066406 -3.398438 2.546875 -3.671875 C 2.734375 -3.785156 2.921875 -3.84375 3.109375 -3.84375 C 3.515625 -3.84375 3.753906 -3.65625 3.828125 -3.28125 C 3.859375 -3.101562 3.847656 -2.90625 3.796875 -2.6875 L 3.359375 -0.84375 C 3.296875 -0.539062 3.179688 -0.359375 3.015625 -0.296875 C 2.921875 -0.265625 2.765625 -0.25 2.546875 -0.25 L 2.484375 0 L 4.65625 0 C 4.6875 -0.144531 4.65625 -0.222656 4.5625 -0.234375 C 4.53125 -0.242188 4.5 -0.25 4.46875 -0.25 L 3.96875 -0.25 L 4.53125 -2.6875 C 4.695312 -3.40625 4.570312 -3.894531 4.15625 -4.15625 C 3.988281 -4.238281 3.800781 -4.28125 3.59375 -4.28125 C 3.101562 -4.28125 2.65625 -4.101562 2.25 -3.75 C 2.082031 -3.601562 1.9375 -3.4375 1.8125 -3.25 L 2.546875 -6.40625 L 1.078125 -6.40625 L 1.015625 -6.15625 L 1.75 -6.15625 L 0.53125 -0.84375 C 0.457031 -0.539062 0.328125 -0.359375 0.140625 -0.296875 C 0.0351562 -0.265625 -0.125 -0.25 -0.34375 -0.25 L -0.40625 0 L 1.8125 0 C 1.84375 -0.144531 1.8125 -0.222656 1.71875 -0.234375 C 1.695312 -0.242188 1.664062 -0.25 1.625 -0.25 Z M 1.625 -0.25 "></path>
        </g>
      </g>
    </g>
    <g fill="#ff5757" fill-opacity="1">
      <g transform="translate(178.793242, 89.393197)">
        <g>
          <path d="M 1.796875 -0.25 L 1.359375 -0.25 L 1.84375 -2.375 C 2 -2.988281 2.316406 -3.429688 2.796875 -3.703125 C 2.992188 -3.804688 3.1875 -3.859375 3.375 -3.859375 C 3.78125 -3.859375 4.007812 -3.671875 4.0625 -3.296875 C 4.09375 -3.148438 4.082031 -2.984375 4.03125 -2.796875 L 3.578125 -0.84375 C 3.515625 -0.539062 3.390625 -0.359375 3.203125 -0.296875 C 3.097656 -0.265625 2.9375 -0.25 2.71875 -0.25 L 2.65625 0 L 4.875 0 C 4.90625 -0.144531 4.875 -0.222656 4.78125 -0.234375 C 4.757812 -0.242188 4.726562 -0.25 4.6875 -0.25 L 4.1875 -0.25 L 4.75 -2.6875 C 4.90625 -3.34375 4.789062 -3.8125 4.40625 -4.09375 C 4.21875 -4.21875 4.003906 -4.28125 3.765625 -4.28125 C 3.273438 -4.28125 2.832031 -4.085938 2.4375 -3.703125 C 2.269531 -3.554688 2.132812 -3.390625 2.03125 -3.203125 L 2.21875 -4.1875 L 0.78125 -4.1875 L 0.71875 -3.9375 L 1.46875 -3.9375 L 0.75 -0.84375 C 0.675781 -0.539062 0.550781 -0.359375 0.375 -0.296875 C 0.269531 -0.265625 0.101562 -0.25 -0.125 -0.25 L -0.1875 0 L 1.984375 0 C 2.015625 -0.144531 1.984375 -0.222656 1.890625 -0.234375 C 1.867188 -0.242188 1.835938 -0.25 1.796875 -0.25 Z M 1.796875 -0.25 "></path>
        </g>
      </g>
    </g>
    <g fill="#ff5757" fill-opacity="1">
      <g transform="translate(186.631274, 89.393197)">
        <g>
          <path d="M 1.234375 -2.09375 C 1.472656 -3.113281 1.894531 -3.738281 2.5 -3.96875 C 2.65625 -4.019531 2.816406 -4.046875 2.984375 -4.046875 C 3.710938 -4.046875 4.023438 -3.582031 3.921875 -2.65625 C 3.910156 -2.5 3.878906 -2.328125 3.828125 -2.140625 C 3.578125 -1.035156 3.128906 -0.390625 2.484375 -0.203125 C 2.347656 -0.160156 2.21875 -0.140625 2.09375 -0.140625 C 1.4375 -0.140625 1.113281 -0.535156 1.125 -1.328125 C 1.132812 -1.554688 1.171875 -1.8125 1.234375 -2.09375 Z M 3.0625 -4.28125 C 2.425781 -4.28125 1.847656 -4.066406 1.328125 -3.640625 C 0.847656 -3.234375 0.539062 -2.734375 0.40625 -2.140625 C 0.21875 -1.304688 0.375 -0.6875 0.875 -0.28125 C 1.1875 -0.03125 1.566406 0.09375 2.015625 0.09375 C 2.648438 0.09375 3.222656 -0.128906 3.734375 -0.578125 C 4.210938 -0.984375 4.519531 -1.488281 4.65625 -2.09375 C 4.851562 -2.925781 4.691406 -3.539062 4.171875 -3.9375 C 3.859375 -4.164062 3.488281 -4.28125 3.0625 -4.28125 Z M 3.0625 -4.28125 "></path>
        </g>
      </g>
    </g>
    <g fill="#ff5757" fill-opacity="1">
      <g transform="translate(193.927371, 89.393197)">
        <g>
          <path d="M 5.125 -5.65625 L 5.953125 -5.65625 L 4.9375 -1.234375 L 2.265625 -5.921875 L 0.90625 -5.921875 L 0.84375 -5.65625 L 1.625 -5.65625 L 0.375 -0.25 L -0.40625 -0.25 L -0.46875 0 L 1.546875 0 C 1.585938 -0.144531 1.554688 -0.226562 1.453125 -0.25 C 1.421875 -0.25 1.390625 -0.25 1.359375 -0.25 L 0.78125 -0.25 L 1.828125 -4.8125 L 4.578125 0.046875 L 5.046875 -0.046875 L 6.359375 -5.65625 L 7.140625 -5.65625 L 7.203125 -5.921875 L 5.1875 -5.921875 Z M 5.125 -5.65625 "></path>
        </g>
      </g>
    </g>
    <g fill="#ff5757" fill-opacity="1">
      <g transform="translate(202.760593, 89.393197)">
        <g>
          <path d="M 1.6875 -0.25 L 1.1875 -0.25 L 2.09375 -4.1875 L 0.5625 -4.1875 L 0.515625 -3.9375 L 1.296875 -3.9375 L 0.578125 -0.84375 C 0.515625 -0.539062 0.367188 -0.351562 0.140625 -0.28125 C 0.046875 -0.257812 -0.113281 -0.25 -0.34375 -0.25 L -0.390625 0 L 1.875 0 C 1.90625 -0.144531 1.867188 -0.222656 1.765625 -0.234375 C 1.742188 -0.242188 1.71875 -0.25 1.6875 -0.25 Z M 2.546875 -5.625 C 2.597656 -5.851562 2.535156 -6.019531 2.359375 -6.125 C 2.285156 -6.15625 2.210938 -6.171875 2.140625 -6.171875 C 1.910156 -6.171875 1.722656 -6.066406 1.578125 -5.859375 C 1.523438 -5.785156 1.488281 -5.707031 1.46875 -5.625 C 1.414062 -5.382812 1.488281 -5.21875 1.6875 -5.125 C 1.75 -5.101562 1.816406 -5.09375 1.890625 -5.09375 C 2.117188 -5.09375 2.300781 -5.195312 2.4375 -5.40625 C 2.488281 -5.476562 2.523438 -5.550781 2.546875 -5.625 Z M 2.546875 -5.625 "></path>
        </g>
      </g>
    </g>
    <g fill="#ff5757" fill-opacity="1">
      <g transform="translate(207.859393, 89.393197)">
        <g>
          <path d="M 1.796875 -0.25 L 1.359375 -0.25 L 1.84375 -2.375 C 2 -2.988281 2.316406 -3.429688 2.796875 -3.703125 C 2.992188 -3.804688 3.1875 -3.859375 3.375 -3.859375 C 3.78125 -3.859375 4.007812 -3.671875 4.0625 -3.296875 C 4.09375 -3.148438 4.082031 -2.984375 4.03125 -2.796875 L 3.578125 -0.84375 C 3.515625 -0.539062 3.390625 -0.359375 3.203125 -0.296875 C 3.097656 -0.265625 2.9375 -0.25 2.71875 -0.25 L 2.65625 0 L 4.875 0 C 4.90625 -0.144531 4.875 -0.222656 4.78125 -0.234375 C 4.757812 -0.242188 4.726562 -0.25 4.6875 -0.25 L 4.1875 -0.25 L 4.75 -2.6875 C 4.90625 -3.34375 4.789062 -3.8125 4.40625 -4.09375 C 4.21875 -4.21875 4.003906 -4.28125 3.765625 -4.28125 C 3.273438 -4.28125 2.832031 -4.085938 2.4375 -3.703125 C 2.269531 -3.554688 2.132812 -3.390625 2.03125 -3.203125 L 2.21875 -4.1875 L 0.78125 -4.1875 L 0.71875 -3.9375 L 1.46875 -3.9375 L 0.75 -0.84375 C 0.675781 -0.539062 0.550781 -0.359375 0.375 -0.296875 C 0.269531 -0.265625 0.101562 -0.25 -0.125 -0.25 L -0.1875 0 L 1.984375 0 C 2.015625 -0.144531 1.984375 -0.222656 1.890625 -0.234375 C 1.867188 -0.242188 1.835938 -0.25 1.796875 -0.25 Z M 1.796875 -0.25 "></path>
        </g>
      </g>
    </g>
    <g fill="#ff5757" fill-opacity="1">
      <g transform="translate(215.697428, 89.393197)">
        <g>
          <path d="M 2.765625 -5.625 C 2.828125 -5.851562 2.765625 -6.019531 2.578125 -6.125 C 2.503906 -6.15625 2.429688 -6.171875 2.359375 -6.171875 C 2.128906 -6.171875 1.941406 -6.066406 1.796875 -5.859375 C 1.742188 -5.785156 1.707031 -5.707031 1.6875 -5.625 C 1.632812 -5.382812 1.707031 -5.21875 1.90625 -5.125 C 1.96875 -5.101562 2.035156 -5.09375 2.109375 -5.09375 C 2.335938 -5.09375 2.523438 -5.195312 2.671875 -5.40625 C 2.722656 -5.476562 2.753906 -5.550781 2.765625 -5.625 Z M 0.8125 -4.1875 L 0.75 -3.9375 L 1.546875 -3.9375 L 0.484375 0.671875 C 0.316406 1.296875 0.109375 1.613281 -0.140625 1.625 C -0.273438 1.625 -0.34375 1.535156 -0.34375 1.359375 C -0.363281 1.148438 -0.390625 1.019531 -0.421875 0.96875 C -0.472656 0.9375 -0.535156 0.921875 -0.609375 0.921875 C -0.804688 0.921875 -0.953125 1.007812 -1.046875 1.1875 C -1.054688 1.21875 -1.0625 1.242188 -1.0625 1.265625 C -1.113281 1.492188 -1.015625 1.671875 -0.765625 1.796875 C -0.640625 1.847656 -0.507812 1.875 -0.375 1.875 C 0.0703125 1.875 0.46875 1.671875 0.8125 1.265625 C 1.0625 0.960938 1.238281 0.582031 1.34375 0.125 L 2.34375 -4.1875 Z M 0.8125 -4.1875 "></path>
        </g>
      </g>
    </g>
    <g fill="#ff5757" fill-opacity="1">
      <g transform="translate(220.559748, 89.393197)">
        <g>
          <path d="M 3.359375 0.09375 C 3.867188 0.09375 4.21875 -0.207031 4.40625 -0.8125 C 4.425781 -0.851562 4.441406 -0.890625 4.453125 -0.921875 L 4.1875 -0.9375 C 4.03125 -0.457031 3.847656 -0.210938 3.640625 -0.203125 C 3.472656 -0.222656 3.425781 -0.394531 3.5 -0.71875 L 3.984375 -2.796875 C 4.191406 -3.734375 3.832031 -4.226562 2.90625 -4.28125 C 2.84375 -4.28125 2.78125 -4.28125 2.71875 -4.28125 C 1.988281 -4.28125 1.457031 -4.113281 1.125 -3.78125 C 1.019531 -3.664062 0.957031 -3.550781 0.9375 -3.4375 C 0.882812 -3.238281 0.953125 -3.117188 1.140625 -3.078125 C 1.171875 -3.078125 1.203125 -3.078125 1.234375 -3.078125 C 1.390625 -3.078125 1.523438 -3.171875 1.640625 -3.359375 C 1.785156 -3.597656 1.878906 -3.742188 1.921875 -3.796875 C 2.085938 -3.960938 2.300781 -4.046875 2.5625 -4.046875 C 3.164062 -4.003906 3.40625 -3.664062 3.28125 -3.03125 L 3.140625 -2.40625 C 1.597656 -2.40625 0.640625 -2.082031 0.265625 -1.4375 C 0.191406 -1.3125 0.140625 -1.175781 0.109375 -1.03125 C 0.00390625 -0.53125 0.144531 -0.191406 0.53125 -0.015625 C 0.695312 0.0546875 0.878906 0.09375 1.078125 0.09375 C 1.554688 0.09375 2 -0.0664062 2.40625 -0.390625 C 2.550781 -0.515625 2.664062 -0.644531 2.75 -0.78125 C 2.695312 -0.195312 2.898438 0.09375 3.359375 0.09375 Z M 1.5 -0.296875 C 1.09375 -0.296875 0.890625 -0.492188 0.890625 -0.890625 C 0.890625 -0.984375 0.90625 -1.085938 0.9375 -1.203125 C 1.039062 -1.640625 1.359375 -1.921875 1.890625 -2.046875 C 2.171875 -2.097656 2.566406 -2.128906 3.078125 -2.140625 L 2.90625 -1.34375 C 2.695312 -0.894531 2.378906 -0.578125 1.953125 -0.390625 C 1.796875 -0.328125 1.644531 -0.296875 1.5 -0.296875 Z M 1.5 -0.296875 "></path>
        </g>
      </g>
    </g>
  </symbol>
</svg>